<svg width="1440" height="1024" viewBox="0 0 1440 1024" fill="none" xmlns="http://www.w3.org/2000/svg">
<rect width="1440" height="1024" fill="white"/>
<rect width="1440" height="1024" fill="#D3B4F6"/>
<path d="M578.562 429.391L510.781 616H483.078L561.125 411.25H578.984L578.562 429.391ZM635.375 616L567.453 429.391L567.031 411.25H584.891L663.219 616H635.375ZM631.859 540.203V562.422H516.828V540.203H631.859ZM766.156 535.703H711.453V513.625H766.156C776.75 513.625 785.328 511.938 791.891 508.562C798.453 505.188 803.234 500.5 806.234 494.5C809.328 488.5 810.875 481.656 810.875 473.969C810.875 466.938 809.328 460.328 806.234 454.141C803.234 447.953 798.453 442.984 791.891 439.234C785.328 435.391 776.75 433.469 766.156 433.469H717.781V616H690.641V411.25H766.156C781.625 411.25 794.703 413.922 805.391 419.266C816.078 424.609 824.188 432.016 829.719 441.484C835.25 450.859 838.016 461.594 838.016 473.688C838.016 486.812 835.25 498.016 829.719 507.297C824.188 516.578 816.078 523.656 805.391 528.531C794.703 533.312 781.625 535.703 766.156 535.703ZM901.438 411.25V616H874.297V411.25H901.438Z" fill="black"/>
</svg>
